<svg id="visual" viewBox="0 0 998 1000" width="998" height="1000" xmlns="http://www.w3.org/2000/svg" xmlns:xlink="http://www.w3.org/1999/xlink" version="1.1"><rect x="0" y="0" width="998" height="1000" fill="#140021"></rect><path d="M0 658L43 658L43 882L87 882L87 617L130 617L130 321L174 321L174 339L217 339L217 292L260 292L260 891L304 891L304 849L347 849L347 497L391 497L391 919L434 919L434 829L477 829L477 816L521 816L521 738L564 738L564 780L607 780L607 345L651 345L651 865L694 865L694 526L738 526L738 468L781 468L781 368L824 368L824 705L868 705L868 526L911 526L911 442L955 442L955 465L998 465L998 637L998 0L998 0L955 0L955 0L911 0L911 0L868 0L868 0L824 0L824 0L781 0L781 0L738 0L738 0L694 0L694 0L651 0L651 0L607 0L607 0L564 0L564 0L521 0L521 0L477 0L477 0L434 0L434 0L391 0L391 0L347 0L347 0L304 0L304 0L260 0L260 0L217 0L217 0L174 0L174 0L130 0L130 0L87 0L87 0L43 0L43 0L0 0Z" fill="#9900ff"></path><path d="M0 563L43 563L43 316L87 316L87 677L130 677L130 406L174 406L174 319L217 319L217 344L260 344L260 541L304 541L304 627L347 627L347 478L391 478L391 810L434 810L434 871L477 871L477 717L521 717L521 511L564 511L564 329L607 329L607 636L651 636L651 599L694 599L694 656L738 656L738 495L781 495L781 901L824 901L824 623L868 623L868 298L911 298L911 681L955 681L955 701L998 701L998 637L998 0L998 0L955 0L955 0L911 0L911 0L868 0L868 0L824 0L824 0L781 0L781 0L738 0L738 0L694 0L694 0L651 0L651 0L607 0L607 0L564 0L564 0L521 0L521 0L477 0L477 0L434 0L434 0L391 0L391 0L347 0L347 0L304 0L304 0L260 0L260 0L217 0L217 0L174 0L174 0L130 0L130 0L87 0L87 0L43 0L43 0L0 0Z" fill="#890ce9"></path><path d="M0 680L43 680L43 569L87 569L87 531L130 531L130 614L174 614L174 274L217 274L217 515L260 515L260 269L304 269L304 630L347 630L347 374L391 374L391 801L434 801L434 682L477 682L477 831L521 831L521 491L564 491L564 285L607 285L607 771L651 771L651 625L694 625L694 242L738 242L738 784L781 784L781 361L824 361L824 728L868 728L868 802L911 802L911 582L955 582L955 795L998 795L998 425L998 0L998 0L955 0L955 0L911 0L911 0L868 0L868 0L824 0L824 0L781 0L781 0L738 0L738 0L694 0L694 0L651 0L651 0L607 0L607 0L564 0L564 0L521 0L521 0L477 0L477 0L434 0L434 0L391 0L391 0L347 0L347 0L304 0L304 0L260 0L260 0L217 0L217 0L174 0L174 0L130 0L130 0L87 0L87 0L43 0L43 0L0 0Z" fill="#7a12d3"></path><path d="M0 581L43 581L43 186L87 186L87 535L130 535L130 607L174 607L174 573L217 573L217 407L260 407L260 367L304 367L304 452L347 452L347 489L391 489L391 280L434 280L434 549L477 549L477 547L521 547L521 264L564 264L564 635L607 635L607 473L651 473L651 214L694 214L694 521L738 521L738 193L781 193L781 707L824 707L824 340L868 340L868 434L911 434L911 488L955 488L955 556L998 556L998 264L998 0L998 0L955 0L955 0L911 0L911 0L868 0L868 0L824 0L824 0L781 0L781 0L738 0L738 0L694 0L694 0L651 0L651 0L607 0L607 0L564 0L564 0L521 0L521 0L477 0L477 0L434 0L434 0L391 0L391 0L347 0L347 0L304 0L304 0L260 0L260 0L217 0L217 0L174 0L174 0L130 0L130 0L87 0L87 0L43 0L43 0L0 0Z" fill="#6c15be"></path><path d="M0 419L43 419L43 233L87 233L87 370L130 370L130 571L174 571L174 333L217 333L217 284L260 284L260 449L304 449L304 504L347 504L347 653L391 653L391 544L434 544L434 382L477 382L477 465L521 465L521 408L564 408L564 189L607 189L607 359L651 359L651 276L694 276L694 474L738 474L738 464L781 464L781 194L824 194L824 289L868 289L868 536L911 536L911 219L955 219L955 622L998 622L998 346L998 0L998 0L955 0L955 0L911 0L911 0L868 0L868 0L824 0L824 0L781 0L781 0L738 0L738 0L694 0L694 0L651 0L651 0L607 0L607 0L564 0L564 0L521 0L521 0L477 0L477 0L434 0L434 0L391 0L391 0L347 0L347 0L304 0L304 0L260 0L260 0L217 0L217 0L174 0L174 0L130 0L130 0L87 0L87 0L43 0L43 0L0 0Z" fill="#5e16a8"></path><path d="M0 594L43 594L43 146L87 146L87 455L130 455L130 452L174 452L174 477L217 477L217 491L260 491L260 448L304 448L304 184L347 184L347 293L391 293L391 330L434 330L434 603L477 603L477 556L521 556L521 340L564 340L564 342L607 342L607 488L651 488L651 234L694 234L694 220L738 220L738 466L781 466L781 165L824 165L824 190L868 190L868 444L911 444L911 576L955 576L955 164L998 164L998 243L998 0L998 0L955 0L955 0L911 0L911 0L868 0L868 0L824 0L824 0L781 0L781 0L738 0L738 0L694 0L694 0L651 0L651 0L607 0L607 0L564 0L564 0L521 0L521 0L477 0L477 0L434 0L434 0L391 0L391 0L347 0L347 0L304 0L304 0L260 0L260 0L217 0L217 0L174 0L174 0L130 0L130 0L87 0L87 0L43 0L43 0L0 0Z" fill="#511593"></path><path d="M0 275L43 275L43 200L87 200L87 247L130 247L130 246L174 246L174 162L217 162L217 502L260 502L260 235L304 235L304 495L347 495L347 237L391 237L391 487L434 487L434 500L477 500L477 246L521 246L521 475L564 475L564 277L607 277L607 432L651 432L651 197L694 197L694 170L738 170L738 428L781 428L781 462L824 462L824 396L868 396L868 220L911 220L911 184L955 184L955 348L998 348L998 243L998 0L998 0L955 0L955 0L911 0L911 0L868 0L868 0L824 0L824 0L781 0L781 0L738 0L738 0L694 0L694 0L651 0L651 0L607 0L607 0L564 0L564 0L521 0L521 0L477 0L477 0L434 0L434 0L391 0L391 0L347 0L347 0L304 0L304 0L260 0L260 0L217 0L217 0L174 0L174 0L130 0L130 0L87 0L87 0L43 0L43 0L0 0Z" fill="#45147f"></path><path d="M0 207L43 207L43 190L87 190L87 347L130 347L130 346L174 346L174 257L217 257L217 216L260 216L260 269L304 269L304 298L347 298L347 179L391 179L391 146L434 146L434 431L477 431L477 133L521 133L521 177L564 177L564 108L607 108L607 388L651 388L651 455L694 455L694 219L738 219L738 181L781 181L781 276L824 276L824 96L868 96L868 395L911 395L911 223L955 223L955 244L998 244L998 111L998 0L998 0L955 0L955 0L911 0L911 0L868 0L868 0L824 0L824 0L781 0L781 0L738 0L738 0L694 0L694 0L651 0L651 0L607 0L607 0L564 0L564 0L521 0L521 0L477 0L477 0L434 0L434 0L391 0L391 0L347 0L347 0L304 0L304 0L260 0L260 0L217 0L217 0L174 0L174 0L130 0L130 0L87 0L87 0L43 0L43 0L0 0Z" fill="#39136b"></path><path d="M0 90L43 90L43 288L87 288L87 121L130 121L130 293L174 293L174 172L217 172L217 71L260 71L260 232L304 232L304 328L347 328L347 123L391 123L391 91L434 91L434 366L477 366L477 276L521 276L521 274L564 274L564 192L607 192L607 205L651 205L651 300L694 300L694 297L738 297L738 74L781 74L781 291L824 291L824 298L868 298L868 305L911 305L911 271L955 271L955 124L998 124L998 98L998 0L998 0L955 0L955 0L911 0L911 0L868 0L868 0L824 0L824 0L781 0L781 0L738 0L738 0L694 0L694 0L651 0L651 0L607 0L607 0L564 0L564 0L521 0L521 0L477 0L477 0L434 0L434 0L391 0L391 0L347 0L347 0L304 0L304 0L260 0L260 0L217 0L217 0L174 0L174 0L130 0L130 0L87 0L87 0L43 0L43 0L0 0Z" fill="#2f1157"></path><path d="M0 99L43 99L43 194L87 194L87 143L130 143L130 187L174 187L174 98L217 98L217 246L260 246L260 186L304 186L304 166L347 166L347 108L391 108L391 130L434 130L434 183L477 183L477 270L521 270L521 246L564 246L564 296L607 296L607 243L651 243L651 57L694 57L694 252L738 252L738 291L781 291L781 173L824 173L824 216L868 216L868 230L911 230L911 60L955 60L955 221L998 221L998 127L998 0L998 0L955 0L955 0L911 0L911 0L868 0L868 0L824 0L824 0L781 0L781 0L738 0L738 0L694 0L694 0L651 0L651 0L607 0L607 0L564 0L564 0L521 0L521 0L477 0L477 0L434 0L434 0L391 0L391 0L347 0L347 0L304 0L304 0L260 0L260 0L217 0L217 0L174 0L174 0L130 0L130 0L87 0L87 0L43 0L43 0L0 0Z" fill="#240e44"></path><path d="M0 117L43 117L43 134L87 134L87 32L130 32L130 102L174 102L174 222L217 222L217 61L260 61L260 94L304 94L304 219L347 219L347 74L391 74L391 68L434 68L434 95L477 95L477 33L521 33L521 127L564 127L564 60L607 60L607 184L651 184L651 207L694 207L694 101L738 101L738 105L781 105L781 208L824 208L824 50L868 50L868 62L911 62L911 44L955 44L955 55L998 55L998 172L998 0L998 0L955 0L955 0L911 0L911 0L868 0L868 0L824 0L824 0L781 0L781 0L738 0L738 0L694 0L694 0L651 0L651 0L607 0L607 0L564 0L564 0L521 0L521 0L477 0L477 0L434 0L434 0L391 0L391 0L347 0L347 0L304 0L304 0L260 0L260 0L217 0L217 0L174 0L174 0L130 0L130 0L87 0L87 0L43 0L43 0L0 0Z" fill="#1b0a32"></path><path d="M0 64L43 64L43 131L87 131L87 12L130 12L130 9L174 9L174 99L217 99L217 132L260 132L260 13L304 13L304 102L347 102L347 109L391 109L391 46L434 46L434 64L477 64L477 144L521 144L521 121L564 121L564 79L607 79L607 146L651 146L651 122L694 122L694 102L738 102L738 43L781 43L781 144L824 144L824 82L868 82L868 77L911 77L911 97L955 97L955 73L998 73L998 129L998 0L998 0L955 0L955 0L911 0L911 0L868 0L868 0L824 0L824 0L781 0L781 0L738 0L738 0L694 0L694 0L651 0L651 0L607 0L607 0L564 0L564 0L521 0L521 0L477 0L477 0L434 0L434 0L391 0L391 0L347 0L347 0L304 0L304 0L260 0L260 0L217 0L217 0L174 0L174 0L130 0L130 0L87 0L87 0L43 0L43 0L0 0Z" fill="#140021"></path></svg>